<?xml version="1.0" encoding="utf-8"?>
<!-- Generator: Adobe Illustrator 22.1.0, SVG Export Plug-In . SVG Version: 6.00 Build 0)  -->
<svg version="1.1" id="Capa_1" xmlns="http://www.w3.org/2000/svg" xmlns:xlink="http://www.w3.org/1999/xlink" x="0px" y="0px"
	 viewBox="0 0 281.4 282.7" style="enable-background:new 0 0 281.4 282.7;" xml:space="preserve">
<style type="text/css">
	.st0{fill:#FFFFFF;}
	.st1{fill:url(#shape_3_1_);}
	.st2{fill:url(#SVGID_1_);}
</style>
<g id="WhatsApp_Logo">
	<g id="shape_4">
		<g>
			
				<image style="overflow:visible;opacity:0.15;enable-background:new    ;" width="438" height="440" xlink:href="3516A3C55024369E.png"  transform="matrix(0.6425 0 0 0.6425 0 0)">
			</image>
			<g>
				<path class="st0" d="M6.3,274l19-69.4c-11.7-20.3-17.9-43.4-17.9-67c0-73.9,60.1-134,134-134c35.9,0,69.5,13.9,94.8,39.3
					c25.3,25.3,39.3,59,39.2,94.8c0,73.9-60.1,134-134,134l0,0h-0.1c-22.4,0-44.5-5.7-64.1-16.3L6.3,274z M80.7,231.1l4,2.4
					c17.1,10.2,36.7,15.5,56.7,15.5h0.1c61.4,0,111.4-49.9,111.4-111.4c0-29.7-11.6-57.7-32.6-78.8c-21-21.1-49-32.6-78.8-32.6
					C80,26.3,30.1,76.2,30.1,137.6c0,21,5.8,41.5,17,59.2l2.6,4.2l-11.2,41.1L80.7,231.1z"/>
			</g>
		</g>
	</g>
	
		<linearGradient id="shape_3_1_" gradientUnits="userSpaceOnUse" x1="140.9223" y1="797.7005" x2="140.9223" y2="1058.6978" gradientTransform="matrix(1 0 0 -1 0 1067)">
		<stop  offset="0" style="stop-color:#20B038"/>
		<stop  offset="1" style="stop-color:#60D66A"/>
	</linearGradient>
	<path id="shape_3" class="st1" d="M11,269.3l18.4-67c-11.3-19.6-17.3-41.9-17.3-64.6C12.1,66.3,70.2,8.3,141.5,8.3
		c34.6,0,67.1,13.5,91.5,37.9c24.4,24.4,37.8,56.9,37.8,91.5c0,71.3-58.1,129.3-129.3,129.3l0,0h-0.1c-21.7,0-42.9-5.5-61.8-15.7
		L11,269.3z"/>
	<g id="shape_2">
		<g>
			<g>
				
					<linearGradient id="SVGID_1_" gradientUnits="userSpaceOnUse" x1="140.9225" y1="793.01" x2="140.9225" y2="1063.324" gradientTransform="matrix(1 0 0 -1 0 1067)">
					<stop  offset="0" style="stop-color:#F9F9F9"/>
					<stop  offset="1" style="stop-color:#FFFFFF"/>
				</linearGradient>
				<path class="st2" d="M6.3,274l19-69.4c-11.7-20.3-17.9-43.4-17.9-67c0-73.9,60.1-134,134-134c35.9,0,69.5,13.9,94.8,39.3
					c25.3,25.3,39.3,59,39.2,94.8c0,73.9-60.1,134-134,134l0,0h-0.1c-22.4,0-44.5-5.7-64.1-16.3L6.3,274z M80.7,231.1l4,2.4
					c17.1,10.2,36.7,15.5,56.7,15.5h0.1c61.4,0,111.4-49.9,111.4-111.4c0-29.7-11.6-57.7-32.6-78.8c-21-21.1-49-32.6-78.8-32.6
					C80,26.3,30.1,76.2,30.1,137.6c0,21,5.8,41.5,17,59.2l2.6,4.2l-11.2,41.1L80.7,231.1z"/>
			</g>
		</g>
	</g>
	<g id="shape_1">
		
			<image style="overflow:visible;opacity:6.000000e-02;enable-background:new    ;" width="237" height="222" xlink:href="3516A3C55024369B.png"  transform="matrix(0.6425 0 0 0.6425 65.5384 68.7511)">
		</image>
		<g>
			<path class="st0" d="M108,81.6c-2.5-5.6-5.1-5.7-7.5-5.8c-1.9-0.1-4.2-0.1-6.4-0.1s-5.8,0.8-8.9,4.2c-3.1,3.3-11.7,11.4-11.7,28
				c0,16.4,12,32.4,13.7,34.6c1.7,2.2,23.2,37.1,57.2,50.6c28.3,11.2,34.1,8.9,40.2,8.4c6.2-0.6,19.8-8.1,22.6-15.9
				c2.8-7.8,2.8-14.5,1.9-15.9c-0.8-1.4-3.1-2.2-6.4-3.9c-3.3-1.7-19.8-9.8-22.9-10.9c-3.1-1.2-5.3-1.7-7.5,1.7
				c-2.2,3.3-8.7,10.9-10.6,13.1c-1.9,2.2-3.9,2.5-7.3,0.8c-3.3-1.7-14.1-5.2-26.9-16.6c-10-8.9-16.7-19.9-18.6-23.2
				c-1.9-3.3-0.2-5.1,1.5-6.8c1.5-1.5,3.3-3.9,5-5.8c1.7-1.9,2.2-3.3,3.3-5.6s0.6-4.2-0.3-5.8S110.9,88.2,108,81.6z"/>
		</g>
	</g>
</g>
</svg>
